<?xml version="1.0" encoding="utf-8"?>
<!-- Generator: Adobe Illustrator 16.0.4, SVG Export Plug-In . SVG Version: 6.00 Build 0)  -->
<!DOCTYPE svg PUBLIC "-//W3C//DTD SVG 1.1//EN" "http://www.w3.org/Graphics/SVG/1.1/DTD/svg11.dtd">
<svg version="1.1" id="Layer_1" xmlns="http://www.w3.org/2000/svg" xmlns:xlink="http://www.w3.org/1999/xlink" x="0px" y="0px"
	 width="98px" height="140px" viewBox="0 0 98 140" enable-background="new 0 0 98 140" xml:space="preserve">
<g>
	<g enable-background="new    ">
		<g>
			<polygon fill="#D59200" points="74.887,106.598 45.633,89.598 67.894,76.744 97.148,93.745 			"/>
		</g>
		<g>
			<polygon fill="#D59200" points="30.382,132.293 1.128,115.292 20.601,104.05 49.854,121.05 			"/>
		</g>
		<g>
			<path fill="#F1AA00" d="M74.887,106.598l22.262-12.853l-26.631,42.716l-40.135-4.168l19.472-11.243
				c6.515-11.215,16.513-21.612-6.927-35.421c-23.451-13.8-3.898-47.361,14.572-67.707C45.296,37.498,51.628,59.56,71.434,66.353
				C91.233,73.149,85.995,94.084,74.887,106.598z"/>
		</g>
		<g>
			<defs>
				<path id="SVGID_1_" d="M49.854,121.05l-29.253-17c6.514-11.215,16.513-21.613-6.927-35.42
					C-9.777,54.828,9.776,21.268,28.245,0.922l29.255,17C39.029,38.268,19.477,71.829,42.928,85.629
					C66.367,99.438,56.369,109.835,49.854,121.05z"/>
			</defs>
			<use xlink:href="#SVGID_1_"  overflow="visible" fill="#D59200"/>
			<clipPath id="SVGID_2_">
				<use xlink:href="#SVGID_1_"  overflow="visible"/>
			</clipPath>
			<g clip-path="url(#SVGID_2_)" enable-background="new    ">
				<path fill="#D59200" d="M49.854,121.05l-29.253-17c0.031-0.054,0.062-0.105,0.093-0.158l29.254,16.999
					C49.917,120.944,49.886,120.997,49.854,121.05"/>
				<path fill="#D59200" d="M49.948,120.891l-29.254-16.999c1.257-2.154,2.636-4.276,3.876-6.399l29.253,17
					C52.584,116.616,51.205,118.738,49.948,120.891"/>
				<path fill="#D59200" d="M53.823,114.492l-29.253-17c0.373-0.64,0.734-1.278,1.074-1.917l29.255,16.999
					C54.557,113.216,54.197,113.854,53.823,114.492"/>
				<path fill="#D59200" d="M54.898,112.574L25.644,95.575c0.236-0.443,0.463-0.888,0.677-1.332l29.255,17.001
					C55.36,111.688,55.134,112.133,54.898,112.574"/>
				<path fill="#D59200" d="M55.576,111.244L26.321,94.243c0.172-0.356,0.338-0.714,0.494-1.072l29.253,17.001
					C55.912,110.529,55.747,110.887,55.576,111.244"/>
				<path fill="#D59200" d="M56.067,110.172L26.814,93.171c0.146-0.334,0.284-0.668,0.413-1.003l29.252,16.999
					C56.352,109.503,56.214,109.838,56.067,110.172"/>
				<path fill="#D59200" d="M56.479,109.167L27.227,92.168c0.117-0.308,0.228-0.612,0.33-0.92l29.253,17.001
					C56.708,108.556,56.598,108.861,56.479,109.167"/>
				<path fill="#D59200" d="M56.811,108.249L27.557,91.248c0.105-0.315,0.202-0.63,0.29-0.946l29.254,17.001
					C57.013,107.619,56.916,107.935,56.811,108.249"/>
				<path fill="#D59200" d="M57.101,107.303L27.847,90.302c0.091-0.328,0.171-0.657,0.241-0.986l29.254,16.999
					C57.272,106.646,57.191,106.974,57.101,107.303"/>
				<path fill="#D59200" d="M57.342,106.314L28.088,89.315c0.09-0.427,0.163-0.854,0.214-1.282l29.253,17.002
					C57.504,105.462,57.432,105.891,57.342,106.314"/>
				<path fill="#D59200" d="M57.556,105.035L28.302,88.033c0.72-5.941-2.415-12.209-14.628-19.404
					C4.703,63.35,2.025,55.178,3.172,45.96l29.253,17c-1.147,9.218,1.531,17.389,10.502,22.668
					C55.141,92.825,58.277,99.093,57.556,105.035"/>
				<path fill="#D59200" d="M32.425,62.961l-29.253-17c0.132-1.059,0.314-2.13,0.543-3.213l29.253,17
					C32.74,60.831,32.557,61.902,32.425,62.961"/>
				<path fill="#D59200" d="M32.969,59.747l-29.253-17c0.192-0.915,0.419-1.837,0.677-2.765l29.253,17
					C33.388,57.91,33.162,58.833,32.969,59.747"/>
				<path fill="#D59200" d="M33.646,56.982l-29.253-17c0.237-0.857,0.502-1.719,0.791-2.585l29.254,17
					C34.148,55.263,33.883,56.125,33.646,56.982"/>
				<path fill="#D59200" d="M34.437,54.397l-29.254-17c0.286-0.857,0.596-1.717,0.928-2.58l29.254,17
					C35.032,52.68,34.723,53.54,34.437,54.397"/>
				<path fill="#D59200" d="M35.365,51.817l-29.254-17c0.341-0.886,0.707-1.776,1.093-2.667l29.253,17
					C36.071,50.042,35.706,50.931,35.365,51.817"/>
				<path fill="#D59200" d="M36.458,49.15l-29.253-17c0.402-0.926,0.829-1.854,1.276-2.783l29.254,17.001
					C37.287,47.295,36.86,48.224,36.458,49.15"/>
				<path fill="#D59200" d="M37.734,46.368L8.48,29.367c0.494-1.024,1.015-2.047,1.558-3.069l29.254,17
					C38.749,44.32,38.228,45.344,37.734,46.368"/>
				<path fill="#D59200" d="M39.292,43.298l-29.254-17c0.604-1.137,1.238-2.271,1.897-3.398l29.254,17
					C40.53,41.028,39.896,42.162,39.292,43.298"/>
				<path fill="#D59200" d="M41.189,39.9l-29.254-17c0.75-1.284,1.533-2.561,2.342-3.827l29.254,17
					C42.722,37.339,41.939,38.616,41.189,39.9"/>
				<path fill="#D59200" d="M43.532,36.074l-29.254-17c0.948-1.481,1.933-2.947,2.945-4.39l29.253,17
					C45.464,33.127,44.479,34.592,43.532,36.074"/>
				<path fill="#D59200" d="M46.476,31.684l-29.253-17c1.26-1.796,2.562-3.556,3.891-5.268l29.253,17.001
					C49.039,28.128,47.736,29.889,46.476,31.684"/>
				<path fill="#D59200" d="M50.367,26.417L21.114,9.416c1.677-2.161,3.394-4.245,5.116-6.225l29.254,17
					C53.762,22.171,52.045,24.255,50.367,26.417"/>
				<path fill="#D59200" d="M55.483,20.191l-29.254-17c0.672-0.772,1.345-1.529,2.016-2.269l29.255,17
					C56.828,18.662,56.156,19.419,55.483,20.191"/>
			</g>
		</g>
	</g>
</g>
</svg>
