<?xml version="1.0" encoding="utf-8"?>
<!-- Generator: Adobe Illustrator 16.0.4, SVG Export Plug-In . SVG Version: 6.00 Build 0)  -->
<!DOCTYPE svg PUBLIC "-//W3C//DTD SVG 1.1//EN" "http://www.w3.org/Graphics/SVG/1.1/DTD/svg11.dtd">
<svg version="1.1" id="Layer_1" xmlns="http://www.w3.org/2000/svg" xmlns:xlink="http://www.w3.org/1999/xlink" x="0px" y="0px"
	 width="127px" height="120px" viewBox="0 0 127 120" enable-background="new 0 0 127 120" xml:space="preserve">
<g>
	<g enable-background="new    ">
		<g>
			<defs>
				<path id="SVGID_1_" d="M85.037,72.953c0.033-12.228,0.069-24.454,0.104-36.682c0.053-18.98,16.309-33.273,38.671-32.517
					l-0.104,36.683C101.344,39.68,85.09,53.975,85.037,72.953z"/>
			</defs>
			<use xlink:href="#SVGID_1_"  overflow="visible" fill="#AF3A00"/>
			<clipPath id="SVGID_2_">
				<use xlink:href="#SVGID_1_"  overflow="visible"/>
			</clipPath>
			<g clip-path="url(#SVGID_2_)" enable-background="new    ">
				<path fill="#AF3A00" d="M123.812,3.754l-0.104,36.683c-0.148-0.005-0.299-0.01-0.45-0.013l0.106-36.683
					C123.512,3.745,123.664,3.75,123.812,3.754"/>
				<path fill="#AF3A00" d="M123.364,3.741l-0.106,36.683c-0.978-0.023-1.947-0.019-2.901,0.013l0.105-36.683
					C121.416,3.721,122.385,3.718,123.364,3.741"/>
				<path fill="#AF3A00" d="M120.462,3.754l-0.105,36.683c-1.04,0.036-2.068,0.104-3.08,0.207l0.104-36.683
					C118.393,3.859,119.419,3.79,120.462,3.754"/>
				<path fill="#AF3A00" d="M117.381,3.961l-0.104,36.683c-1.204,0.121-2.386,0.288-3.542,0.498l0.105-36.682
					C114.995,4.248,116.176,4.081,117.381,3.961"/>
				<path fill="#AF3A00" d="M113.84,4.459l-0.105,36.682c-1.934,0.353-3.798,0.828-5.581,1.418l0.104-36.685
					C110.042,5.286,111.904,4.811,113.84,4.459"/>
				<path fill="#AF3A00" d="M108.257,5.875l-0.104,36.685c-2.729,0.9-5.275,2.069-7.604,3.472l0.103-36.684
					C102.982,7.945,105.526,6.777,108.257,5.875"/>
				<path fill="#AF3A00" d="M100.652,9.348l-0.103,36.684c-2.012,1.211-3.861,2.596-5.525,4.136l0.104-36.684
					C96.795,11.944,98.643,10.559,100.652,9.348"/>
				<path fill="#AF3A00" d="M95.128,13.483l-0.104,36.684c-1.254,1.155-2.4,2.398-3.438,3.717l0.105-36.682
					C92.728,15.881,93.877,14.64,95.128,13.483"/>
				<path fill="#AF3A00" d="M91.692,17.203l-0.105,36.682c-0.966,1.232-1.835,2.529-2.604,3.887l0.104-36.684
					C89.853,19.73,90.725,18.432,91.692,17.203"/>
				<path fill="#AF3A00" d="M89.088,21.087l-0.104,36.684c-0.765,1.359-1.429,2.779-1.979,4.253l0.102-36.684
					C87.66,23.868,88.321,22.447,89.088,21.087"/>
				<path fill="#AF3A00" d="M87.105,25.341l-0.102,36.684c-0.57,1.522-1.022,3.1-1.351,4.728l0.106-36.684
					C86.085,28.441,86.537,26.863,87.105,25.341"/>
				<path fill="#AF3A00" d="M85.76,30.069l-0.106,36.684c-0.347,1.728-0.55,3.512-0.603,5.343l0.105-36.683
					C85.207,33.583,85.411,31.798,85.76,30.069"/>
				<path fill="#AF3A00" d="M85.156,35.413l-0.105,36.683c-0.009,0.285-0.014,0.571-0.014,0.857l0.104-36.682
					C85.142,35.984,85.146,35.697,85.156,35.413"/>
			</g>
		</g>
		<g>
			<defs>
				<path id="SVGID_3_" d="M86.357,48.555l-0.104,36.683c-0.052,17.903-20.302,23.022-36.54,19.691l0.104-36.682
					C66.055,71.578,86.306,66.458,86.357,48.555z"/>
			</defs>
			<use xlink:href="#SVGID_3_"  overflow="visible" fill="#AF3A00"/>
			<clipPath id="SVGID_4_">
				<use xlink:href="#SVGID_3_"  overflow="visible"/>
			</clipPath>
			<g clip-path="url(#SVGID_4_)" enable-background="new    ">
				<path fill="#AF3A00" d="M86.357,48.555l-0.104,36.683c-0.001,0.203-0.006,0.405-0.011,0.605l0.104-36.682
					C86.353,48.959,86.355,48.758,86.357,48.555"/>
				<path fill="#AF3A00" d="M86.347,49.161l-0.104,36.682c-0.036,1.227-0.169,2.391-0.386,3.496l0.102-36.683
					C86.179,51.551,86.312,50.386,86.347,49.161"/>
				<path fill="#AF3A00" d="M85.958,52.656l-0.102,36.683c-0.202,0.995-0.471,1.941-0.806,2.84l0.103-36.684
					C85.488,54.598,85.76,53.651,85.958,52.656"/>
				<path fill="#AF3A00" d="M85.153,55.495l-0.103,36.684c-0.322,0.854-0.701,1.666-1.133,2.435l0.102-36.682
					C84.453,57.162,84.833,56.351,85.153,55.495"/>
				<path fill="#AF3A00" d="M84.02,57.932l-0.102,36.682c-0.441,0.78-0.938,1.514-1.481,2.205l0.104-36.682
					C83.085,59.444,83.581,58.71,84.02,57.932"/>
				<path fill="#AF3A00" d="M82.541,60.137l-0.104,36.682c-0.603,0.766-1.268,1.479-1.986,2.145l0.103-36.684
					C81.272,61.616,81.938,60.902,82.541,60.137"/>
				<path fill="#AF3A00" d="M80.553,62.279L80.45,98.963c-1.082,0.995-2.287,1.877-3.59,2.65l0.104-36.683
					C78.268,64.158,79.473,63.276,80.553,62.279"/>
				<path fill="#AF3A00" d="M76.965,64.931l-0.104,36.683c-1.72,1.02-3.615,1.849-5.622,2.491l0.104-36.681
					C73.351,66.778,75.244,65.95,76.965,64.931"/>
				<path fill="#AF3A00" d="M71.342,67.424l-0.104,36.681c-1.441,0.465-2.939,0.834-4.477,1.113l0.104-36.683
					C68.401,68.255,69.901,67.887,71.342,67.424"/>
				<path fill="#AF3A00" d="M66.866,68.535l-0.104,36.683c-1.062,0.192-2.142,0.343-3.232,0.451l0.104-36.683
					C64.725,68.878,65.804,68.727,66.866,68.535"/>
				<path fill="#AF3A00" d="M63.633,68.986l-0.104,36.683c-0.942,0.095-1.891,0.156-2.84,0.189l0.102-36.685
					C61.743,69.142,62.69,69.08,63.633,68.986"/>
				<path fill="#AF3A00" d="M60.791,69.174l-0.102,36.685c-0.906,0.031-1.812,0.032-2.716,0.011l0.104-36.684
					C58.983,69.208,59.888,69.205,60.791,69.174"/>
				<path fill="#AF3A00" d="M58.077,69.186l-0.104,36.684c-0.901-0.022-1.803-0.071-2.698-0.146L55.38,69.04
					C56.275,69.114,57.176,69.164,58.077,69.186"/>
				<path fill="#AF3A00" d="M55.38,69.04l-0.104,36.684c-0.924-0.075-1.843-0.179-2.755-0.308l0.104-36.684
					C53.536,68.862,54.456,68.965,55.38,69.04"/>
				<path fill="#AF3A00" d="M52.625,68.732l-0.104,36.684c-0.947-0.133-1.884-0.297-2.808-0.487l0.104-36.682
					C50.741,68.438,51.679,68.599,52.625,68.732"/>
			</g>
		</g>
		<g>
			<polygon fill="#AF3A00" points="19.401,80.33 19.297,117.013 1.46,77.071 1.564,40.39 			"/>
		</g>
		<g>
			<path fill="#C64200" d="M49.816,68.247L73.952,82.18l-54.551-1.85L1.564,40.39l21.112,12.187
				c14.061,0.037,29.357,3.723,29.611-25.769C52.531-2.692,94.7-2.559,123.812,3.754C98.821,2.909,81.458,20.86,85.81,43.141
				C90.16,65.417,67.586,71.893,49.816,68.247z"/>
		</g>
		<g>
			<polygon fill="#993205" points="73.952,82.18 73.846,118.863 19.297,117.013 19.401,80.33 			"/>
		</g>
	</g>
</g>
</svg>
