<?xml version="1.0" encoding="utf-8"?>
<!-- Generator: Adobe Illustrator 16.0.4, SVG Export Plug-In . SVG Version: 6.00 Build 0)  -->
<!DOCTYPE svg PUBLIC "-//W3C//DTD SVG 1.1//EN" "http://www.w3.org/Graphics/SVG/1.1/DTD/svg11.dtd">
<svg version="1.1" id="Layer_1" xmlns="http://www.w3.org/2000/svg" xmlns:xlink="http://www.w3.org/1999/xlink" x="0px" y="0px"
	 width="80px" height="80px" viewBox="0 0 80 80" enable-background="new 0 0 80 80" xml:space="preserve">
<path fill="#C64200" stroke="#FFFFFF" stroke-width="2" stroke-miterlimit="10" d="M75.487,38.662
	c-0.424-0.627-1.013-1.052-1.762-1.277c-2.331-0.701-4.852-1.741-7.568-3.116c-1.772-0.898-3.313-1.736-4.672-2.522
	c0.404-1.517,0.902-3.199,1.521-5.089c0.947-2.893,1.995-5.411,3.147-7.554c0.369-0.689,0.484-1.406,0.344-2.149
	c-0.141-0.743-0.442-1.344-0.902-1.805c-0.459-0.461-1.068-0.767-1.819-0.917c-0.752-0.15-1.464-0.03-2.137,0.357
	c-2.143,1.152-4.659,2.201-7.554,3.147c-1.89,0.62-3.573,1.119-5.09,1.521c-0.787-1.357-1.626-2.9-2.523-4.675
	c-1.378-2.715-2.416-5.237-3.117-7.566c-0.2-0.75-0.619-1.338-1.258-1.764c-0.637-0.425-1.282-0.639-1.934-0.639
	s-1.289,0.213-1.915,0.639s-1.051,1.014-1.276,1.764c-0.701,2.329-1.74,4.851-3.115,7.566c-0.9,1.774-1.736,3.317-2.523,4.675
	c-1.518-0.403-3.201-0.902-5.089-1.521c-2.896-0.946-5.411-1.995-7.554-3.147c-0.674-0.387-1.386-0.507-2.137-0.357
	c-0.752,0.15-1.36,0.456-1.82,0.917c-0.46,0.46-0.762,1.062-0.902,1.805c-0.14,0.743-0.025,1.46,0.345,2.149
	c1.151,2.143,2.2,4.661,3.146,7.554c0.62,1.891,1.119,3.575,1.521,5.091c-1.356,0.788-2.899,1.624-4.674,2.521
	c-2.714,1.378-5.237,2.416-7.563,3.116c-0.752,0.202-1.34,0.62-1.766,1.259c-0.426,0.637-0.639,1.281-0.639,1.934
	c0,0.652,0.213,1.29,0.639,1.916c0.426,0.625,1.014,1.049,1.766,1.275c2.326,0.701,4.85,1.74,7.563,3.114
	c1.774,0.901,3.317,1.737,4.675,2.524c-0.403,1.516-0.902,3.198-1.52,5.088c-0.949,2.893-1.996,5.411-3.147,7.554
	c-0.372,0.688-0.486,1.406-0.345,2.148c0.143,0.744,0.441,1.346,0.902,1.807c0.461,0.46,1.066,0.767,1.819,0.915
	c0.751,0.151,1.464,0.031,2.137-0.355c2.142-1.153,4.659-2.201,7.554-3.148c1.889-0.619,3.572-1.119,5.088-1.521
	c0.789,1.357,1.626,2.9,2.523,4.676c1.379,2.716,2.416,5.237,3.117,7.566c0.201,0.75,0.619,1.338,1.258,1.763
	c0.638,0.426,1.283,0.639,1.935,0.639s1.289-0.213,1.914-0.639c0.626-0.425,1.052-1.013,1.276-1.763
	c0.701-2.329,1.74-4.851,3.117-7.566c0.898-1.775,1.735-3.318,2.522-4.676c1.517,0.403,3.199,0.903,5.088,1.521
	c2.895,0.947,5.412,1.995,7.554,3.148c0.672,0.387,1.385,0.507,2.136,0.355c0.753-0.148,1.358-0.455,1.82-0.915
	c0.46-0.461,0.76-1.062,0.901-1.807c0.143-0.742,0.027-1.46-0.345-2.148c-1.151-2.143-2.197-4.661-3.146-7.554
	c-0.618-1.89-1.118-3.573-1.521-5.089c1.357-0.788,2.9-1.626,4.673-2.523c2.717-1.378,5.237-2.415,7.568-3.116
	c0.749-0.201,1.338-0.619,1.762-1.259c0.427-0.637,0.64-1.281,0.64-1.934C76.127,39.924,75.914,39.287,75.487,38.662z"/>
<g>
	<g>
		<g>
			<path fill="#FFFFFF" d="M43.121,40.722c-0.089,1.648-1.419,2.996-2.956,2.996s-2.868-1.348-2.957-2.996l-0.54-10.03
				c-0.089-1.647,1.188-2.996,2.838-2.996h1.316c1.65,0,2.928,1.348,2.839,2.996L43.121,40.722z M36.574,49.646
				c0-1.027,0.306-1.826,0.915-2.396c0.609-0.569,1.495-0.855,2.658-0.855c1.151,0,2.024,0.286,2.618,0.855
				c0.592,0.57,0.889,1.369,0.889,2.396c0,1.017-0.309,1.81-0.923,2.379c-0.616,0.571-1.478,0.855-2.584,0.855
				c-1.116,0-1.992-0.284-2.624-0.855C36.891,51.455,36.574,50.662,36.574,49.646z"/>
		</g>
	</g>
</g>
</svg>
