<?xml version="1.0" encoding="utf-8"?>
<!-- Generator: Adobe Illustrator 16.0.4, SVG Export Plug-In . SVG Version: 6.00 Build 0)  -->
<!DOCTYPE svg PUBLIC "-//W3C//DTD SVG 1.1//EN" "http://www.w3.org/Graphics/SVG/1.1/DTD/svg11.dtd">
<svg version="1.1" id="Layer_1" xmlns="http://www.w3.org/2000/svg" xmlns:xlink="http://www.w3.org/1999/xlink" x="0px" y="0px"
	 width="84px" height="140px" viewBox="0 0 84 140" enable-background="new 0 0 84 140" xml:space="preserve">
<g>
	<g enable-background="new    ">
		<g enable-background="new    ">
			<defs>
				<path id="SVGID_1_" enable-background="new    " d="M58.918,121.743c-8.09,5.15-16.179,10.299-24.268,15.449
					c-0.232,0.148-0.474,0.282-0.724,0.404l24.267-15.448C58.444,122.026,58.686,121.892,58.918,121.743z"/>
			</defs>
			<clipPath id="SVGID_2_">
				<use xlink:href="#SVGID_1_"  overflow="visible"/>
			</clipPath>
			<g clip-path="url(#SVGID_2_)" enable-background="new    ">
				<path fill="#656E1F" d="M33.926,137.597l24.267-15.448c0.251-0.122,0.492-0.257,0.725-0.405L34.65,137.192
					C34.417,137.341,34.176,137.475,33.926,137.597"/>
			</g>
		</g>
		<g>
			<defs>
				<path id="SVGID_3_" d="M37.294,53.726c8.09-5.15,16.179-10.298,24.269-15.449c-4.246,2.703-6.361,8.219,9.003,37.692
					c13.119,25.163,9.809,37.869,1.521,43.146c-8.089,5.15-16.179,10.299-24.268,15.448c8.288-5.275,11.599-17.981-1.521-43.145
					C30.934,61.944,33.048,56.428,37.294,53.726z"/>
			</defs>
			<use xlink:href="#SVGID_3_"  overflow="visible" fill="#C2D31D"/>
			<clipPath id="SVGID_4_">
				<use xlink:href="#SVGID_3_"  overflow="visible"/>
			</clipPath>
			<g clip-path="url(#SVGID_4_)" enable-background="new    ">
				<path fill="#C2D31D" d="M37.294,53.726l24.269-15.449c-0.846,0.538-1.606,1.188-2.161,2.115L35.133,55.841
					C35.688,54.913,36.449,54.264,37.294,53.726"/>
				<path fill="#C2D31D" d="M35.133,55.841l24.268-15.449c-0.12,0.201-0.231,0.416-0.331,0.644L34.802,56.485
					C34.902,56.256,35.013,56.042,35.133,55.841"/>
				<path fill="#C2D31D" d="M34.802,56.485L59.07,41.036c-0.061,0.138-0.116,0.283-0.169,0.431L34.634,56.916
					C34.686,56.766,34.743,56.623,34.802,56.485"/>
				<path fill="#C2D31D" d="M34.634,56.916l24.267-15.449c-0.049,0.141-0.094,0.288-0.136,0.44L34.498,57.354
					C34.54,57.203,34.585,57.056,34.634,56.916"/>
				<path fill="#C2D31D" d="M34.498,57.354l24.268-15.448c-0.037,0.137-0.071,0.278-0.102,0.424L34.396,57.779
					C34.426,57.634,34.461,57.491,34.498,57.354"/>
				<path fill="#C2D31D" d="M34.396,57.779l24.269-15.448c-0.025,0.12-0.048,0.242-0.069,0.368L34.328,58.147
					C34.348,58.022,34.371,57.899,34.396,57.779"/>
				<path fill="#C2D31D" d="M34.328,58.147l24.267-15.448c-0.02,0.126-0.038,0.256-0.054,0.387L34.274,58.535
					C34.289,58.403,34.307,58.273,34.328,58.147"/>
				<path fill="#C2D31D" d="M34.274,58.535l24.267-15.449c-0.016,0.133-0.028,0.269-0.039,0.409L34.235,58.943
					C34.245,58.804,34.258,58.668,34.274,58.535"/>
				<path fill="#C2D31D" d="M34.235,58.943l24.267-15.448c-0.009,0.128-0.017,0.259-0.021,0.393L34.212,59.336
					C34.218,59.202,34.225,59.071,34.235,58.943"/>
				<path fill="#C2D31D" d="M34.212,59.336L58.48,43.888c-0.005,0.134-0.008,0.27-0.009,0.409L34.204,59.745
					C34.205,59.605,34.207,59.469,34.212,59.336"/>
				<path fill="#C2D31D" d="M34.204,59.745l24.268-15.449c0,0.139,0.001,0.281,0.005,0.427L34.209,60.172
					C34.205,60.026,34.203,59.884,34.204,59.745"/>
				<path fill="#C2D31D" d="M34.209,60.172l24.268-15.449c0.004,0.147,0.011,0.297,0.02,0.451L34.228,60.623
					C34.219,60.469,34.213,60.318,34.209,60.172"/>
				<path fill="#C2D31D" d="M34.228,60.623l24.268-15.448c0.01,0.164,0.021,0.331,0.037,0.503L34.266,61.125
					C34.25,60.954,34.238,60.786,34.228,60.623"/>
				<path fill="#C2D31D" d="M34.266,61.125l24.268-15.448c0.016,0.171,0.033,0.347,0.055,0.526L34.32,61.652
					C34.299,61.473,34.28,61.297,34.266,61.125"/>
				<path fill="#C2D31D" d="M34.32,61.652l24.268-15.449c0.021,0.18,0.045,0.364,0.072,0.552L34.392,62.204
					C34.365,62.015,34.341,61.832,34.32,61.652"/>
				<path fill="#C2D31D" d="M34.392,62.204L58.66,46.755c0.03,0.209,0.064,0.423,0.102,0.642L34.494,62.845
					C34.456,62.626,34.422,62.412,34.392,62.204"/>
				<path fill="#C2D31D" d="M34.494,62.845l24.268-15.448c0.041,0.234,0.086,0.475,0.136,0.722L34.629,63.567
					C34.58,63.32,34.535,63.081,34.494,62.845"/>
				<path fill="#C2D31D" d="M34.629,63.567L58.897,48.12c0.049,0.246,0.104,0.5,0.162,0.759L34.792,64.327
					C34.733,64.067,34.679,63.814,34.629,63.567"/>
				<path fill="#C2D31D" d="M34.792,64.327L59.06,48.879c0.066,0.29,0.138,0.587,0.216,0.893L35.007,65.221
					C34.929,64.914,34.857,64.617,34.792,64.327"/>
				<path fill="#C2D31D" d="M35.007,65.221l24.268-15.449c0.082,0.325,0.173,0.66,0.27,1.005L35.276,66.226
					C35.18,65.881,35.09,65.546,35.007,65.221"/>
				<path fill="#C2D31D" d="M35.276,66.226l24.269-15.449c0.098,0.351,0.204,0.711,0.317,1.083L35.595,67.308
					C35.481,66.937,35.375,66.575,35.276,66.226"/>
				<path fill="#C2D31D" d="M35.595,67.308l24.268-15.449c0.128,0.417,0.265,0.847,0.412,1.291L36.007,68.598
					C35.859,68.154,35.722,67.724,35.595,67.308"/>
				<path fill="#C2D31D" d="M36.007,68.598L60.274,53.15c0.147,0.443,0.305,0.901,0.472,1.373L36.479,69.971
					C36.311,69.499,36.153,69.042,36.007,68.598"/>
				<path fill="#C2D31D" d="M36.479,69.971l24.267-15.448c0.193,0.542,0.399,1.103,0.62,1.684L37.099,71.654
					C36.878,71.074,36.671,70.513,36.479,69.971"/>
				<path fill="#C2D31D" d="M37.099,71.654l24.267-15.448c0.227,0.593,0.466,1.207,0.722,1.841L37.82,73.495
					C37.564,72.861,37.324,72.248,37.099,71.654"/>
				<path fill="#C2D31D" d="M37.82,73.495l24.268-15.448c0.317,0.788,0.659,1.607,1.025,2.46L38.846,75.957
					C38.479,75.103,38.138,74.284,37.82,73.495"/>
				<path fill="#C2D31D" d="M38.846,75.957l24.268-15.449c0.433,1.009,0.899,2.064,1.404,3.171L40.249,79.126
					C39.745,78.021,39.278,76.965,38.846,75.957"/>
				<path fill="#C2D31D" d="M40.249,79.126l24.269-15.447c0.683,1.5,1.434,3.091,2.256,4.782L42.505,83.909
					C41.683,82.219,40.932,80.626,40.249,79.126"/>
				<path fill="#C2D31D" d="M42.505,83.909L66.773,68.46c1.125,2.314,2.386,4.81,3.792,7.509c0.503,0.966,0.982,1.913,1.438,2.841
					L47.735,94.259c-0.455-0.929-0.935-1.875-1.438-2.84C44.891,88.72,43.631,86.222,42.505,83.909"/>
				<path fill="#C2D31D" d="M47.735,94.259l24.269-15.448c0.494,1.011,0.963,2,1.403,2.968L49.139,97.227
					C48.698,96.258,48.231,95.27,47.735,94.259"/>
				<path fill="#C2D31D" d="M49.139,97.227l24.269-15.448c0.302,0.663,0.591,1.315,0.867,1.96L50.007,99.186
					C49.73,98.542,49.44,97.89,49.139,97.227"/>
				<path fill="#C2D31D" d="M50.007,99.186l24.268-15.447c0.277,0.644,0.542,1.277,0.794,1.9l-24.268,15.449
					C50.548,100.463,50.283,99.829,50.007,99.186"/>
				<path fill="#C2D31D" d="M50.801,101.088l24.268-15.449c0.229,0.568,0.449,1.129,0.659,1.681l-24.269,15.449
					C51.249,102.217,51.03,101.656,50.801,101.088"/>
				<path fill="#C2D31D" d="M51.459,102.769l24.269-15.449c0.198,0.523,0.388,1.039,0.568,1.547l-24.268,15.449
					C51.847,103.807,51.657,103.29,51.459,102.769"/>
				<path fill="#C2D31D" d="M52.028,104.315l24.268-15.449c0.182,0.509,0.354,1.011,0.518,1.506L52.545,105.82
					C52.382,105.326,52.209,104.824,52.028,104.315"/>
				<path fill="#C2D31D" d="M52.545,105.82l24.269-15.448c0.161,0.488,0.315,0.971,0.461,1.445l-24.269,15.448
					C52.86,106.791,52.707,106.31,52.545,105.82"/>
				<path fill="#C2D31D" d="M53.006,107.266l24.269-15.448c0.145,0.473,0.28,0.938,0.409,1.396l-24.269,15.448
					C53.287,108.204,53.15,107.738,53.006,107.266"/>
				<path fill="#C2D31D" d="M53.415,108.662l24.269-15.448c0.129,0.46,0.249,0.912,0.362,1.358l-24.268,15.448
					C53.665,109.574,53.544,109.121,53.415,108.662"/>
				<path fill="#C2D31D" d="M53.778,110.021l24.268-15.448c0.109,0.43,0.211,0.855,0.306,1.275l-24.267,15.447
					C53.989,110.877,53.888,110.451,53.778,110.021"/>
				<path fill="#C2D31D" d="M54.085,111.295l24.267-15.447c0.094,0.409,0.18,0.812,0.26,1.211l-24.269,15.447
					C54.264,112.108,54.178,111.705,54.085,111.295"/>
				<path fill="#C2D31D" d="M54.343,112.506l24.269-15.447c0.079,0.397,0.152,0.79,0.219,1.178l-24.268,15.448
					C54.495,113.297,54.423,112.905,54.343,112.506"/>
				<path fill="#C2D31D" d="M54.562,113.685L78.83,98.236c0.064,0.377,0.124,0.748,0.177,1.115L54.739,114.8
					C54.686,114.433,54.627,114.062,54.562,113.685"/>
				<path fill="#C2D31D" d="M54.739,114.8l24.268-15.448c0.05,0.35,0.095,0.695,0.135,1.038l-24.268,15.447
					C54.834,115.496,54.789,115.15,54.739,114.8"/>
				<path fill="#C2D31D" d="M54.874,115.837l24.268-15.447c0.04,0.34,0.074,0.677,0.103,1.009l-24.268,15.447
					C54.948,116.515,54.914,116.179,54.874,115.837"/>
				<path fill="#C2D31D" d="M54.977,116.846l24.268-15.447c0.03,0.331,0.054,0.658,0.072,0.98l-24.269,15.449
					C55.029,117.505,55.006,117.178,54.977,116.846"/>
				<path fill="#C2D31D" d="M55.048,117.828l24.269-15.449c0.019,0.325,0.032,0.646,0.04,0.962l-24.268,15.447
					C55.08,118.473,55.067,118.152,55.048,117.828"/>
				<path fill="#C2D31D" d="M55.089,118.788l24.268-15.447c0.009,0.314,0.013,0.627,0.011,0.934L55.1,119.723
					C55.101,119.415,55.098,119.105,55.089,118.788"/>
				<path fill="#C2D31D" d="M55.1,119.723l24.268-15.448c-0.002,0.306-0.009,0.608-0.02,0.906L55.079,120.63
					C55.091,120.331,55.098,120.029,55.1,119.723"/>
				<path fill="#C2D31D" d="M55.079,120.63l24.269-15.449c-0.013,0.315-0.03,0.627-0.054,0.933l-24.268,15.448
					C55.05,121.257,55.067,120.945,55.079,120.63"/>
				<path fill="#C2D31D" d="M55.026,121.562l24.268-15.448c-0.024,0.325-0.056,0.646-0.092,0.959L54.934,122.52
					C54.971,122.206,55.001,121.887,55.026,121.562"/>
				<path fill="#C2D31D" d="M54.934,122.52l24.269-15.447c-0.037,0.314-0.079,0.622-0.128,0.925l-24.269,15.448
					C54.854,123.143,54.896,122.834,54.934,122.52"/>
				<path fill="#C2D31D" d="M54.806,123.445l24.269-15.448c-0.055,0.338-0.115,0.67-0.185,0.994l-24.268,15.448
					C54.69,124.114,54.752,123.783,54.806,123.445"/>
				<path fill="#C2D31D" d="M54.622,124.439l24.268-15.448c-0.077,0.37-0.164,0.73-0.261,1.082l-24.268,15.448
					C54.457,125.17,54.544,124.81,54.622,124.439"/>
				<path fill="#C2D31D" d="M54.361,125.521l24.268-15.448c-0.098,0.358-0.204,0.708-0.32,1.05l-24.268,15.449
					C54.157,126.23,54.264,125.881,54.361,125.521"/>
				<path fill="#C2D31D" d="M54.041,126.572l24.268-15.449c-0.164,0.484-0.346,0.948-0.543,1.396l-24.269,15.449
					C53.696,127.521,53.877,127.056,54.041,126.572"/>
				<path fill="#C2D31D" d="M53.497,127.968l24.269-15.449c-0.255,0.577-0.537,1.122-0.845,1.641l-24.268,15.447
					C52.961,129.09,53.242,128.543,53.497,127.968"/>
				<path fill="#C2D31D" d="M52.653,129.606l24.268-15.447c-1.245,2.097-2.905,3.728-4.835,4.956l-24.268,15.448
					C49.747,133.336,51.408,131.704,52.653,129.606"/>
			</g>
		</g>
		<g>
			<polygon fill="#D1DE6B" points="1.504,27.024 25.772,11.576 47.991,0.784 23.724,16.232 			"/>
		</g>
		<g>
			<path fill="#ABBA1B" d="M23.724,16.232l33.167,45.821L40.736,51.837c-5.438,3.339-13.76,2.517,5.562,39.582
				c19.325,37.066,3,47.102-12.372,46.178c10.186-4.944,5.054-31.743-11.294-58.646c-16.34-26.897-11.909-40.553-2.666-40.25
				L1.504,27.024L23.724,16.232z"/>
		</g>
		<g>
			<polygon fill="#C2D31D" points="23.724,16.232 47.991,0.784 81.158,46.604 56.891,62.053 			"/>
		</g>
	</g>
</g>
</svg>
